<svg version="1.1" id="Layer_1" xmlns="http://www.w3.org/2000/svg" xmlns:xlink="http://www.w3.org/1999/xlink" x="0px" y="0px"
	 width="100%" viewBox="0 0 200 200" enable-background="new 0 0 200 200" xml:space="preserve">
<path fill="#FFFFFF" opacity="1.000000" stroke="none" 
	d="
M117.000000,201.000000 
	C78.024071,201.000000 39.548149,201.000000 1.036112,201.000000 
	C1.036112,134.399109 1.036112,67.798203 1.036112,1.098643 
	C67.559090,1.098643 134.118378,1.098643 200.838837,1.098643 
	C200.838837,67.666351 200.838837,134.333145 200.838837,201.000000 
	C173.131821,201.000000 145.315903,201.000000 117.000000,201.000000 
M158.591003,154.821716 
	C158.807755,154.628189 158.953506,154.391037 159.120087,153.598709 
	C159.376495,153.384140 159.632919,153.169571 160.611145,152.921875 
	C162.084473,151.073715 164.034698,149.430511 164.934814,147.336014 
	C166.997574,142.536179 167.828033,137.073380 170.511063,132.711533 
	C173.129272,128.455048 172.361877,124.944878 170.821213,120.067894 
	C170.879074,115.712593 170.936935,111.357292 171.568039,106.474113 
	C172.255096,102.966850 172.555634,99.551834 169.042435,96.353661 
	C169.031006,95.901443 169.019592,95.449219 169.556625,94.525528 
	C167.408386,88.546005 165.433273,82.494362 162.992935,76.636528 
	C162.365417,75.130211 160.272598,74.234329 158.391647,72.853775 
	C158.267380,72.552200 158.143112,72.250626 158.009720,71.233711 
	C157.297577,70.517845 156.585434,69.801979 155.967804,69.012451 
	C155.967804,69.012451 155.908997,69.116859 155.965271,68.363335 
	C154.004227,65.483307 152.043182,62.603291 149.622391,59.048084 
	C149.750977,58.658741 150.241119,57.174648 150.389313,56.725948 
	C147.555664,55.904755 145.250076,55.236019 142.944138,54.568539 
	C141.230621,54.072544 139.516632,53.578175 137.252579,53.019688 
	C136.834106,52.681347 136.415619,52.343006 135.896667,51.296745 
	C133.263397,50.198383 130.630127,49.100018 127.469414,48.014126 
	C127.317772,47.925079 127.166122,47.836029 126.906258,47.035931 
	C127.267166,44.669323 127.628075,42.302715 128.142654,39.745728 
	C128.142654,39.745728 128.381638,39.798134 129.285416,39.906498 
	C130.908615,38.961391 135.924484,42.681366 134.012482,36.208210 
	C134.243698,35.989178 134.517670,35.896385 135.595978,35.967659 
	C139.884384,34.955120 142.326859,32.502735 141.795776,27.477037 
	C141.795776,27.477037 141.772568,27.088736 142.326492,26.736229 
	C142.400925,26.284035 142.701431,25.684238 142.516678,25.401266 
	C138.050400,18.560566 128.682449,17.837942 121.370270,20.396723 
	C116.673592,23.346962 110.974060,25.461823 107.599281,29.513201 
	C104.925804,32.722683 105.103226,38.306942 103.133247,42.984028 
	C86.707741,43.707523 71.785088,48.900730 57.480015,57.978085 
	C53.085392,56.343666 53.144775,59.296253 53.031391,62.067829 
	C53.031391,62.067829 53.176609,62.146057 52.399826,62.062035 
	C51.618923,63.068165 50.838020,64.074295 50.010944,65.010536 
	C50.010944,65.010536 50.088432,65.042343 49.594337,65.225632 
	C49.411819,65.515930 49.229305,65.806221 49.018909,66.015167 
	C49.018909,66.015167 49.092144,66.060249 48.347271,66.086739 
	C45.531906,67.198914 43.308800,68.714226 44.029453,72.737740 
	C44.029453,72.737740 43.693146,73.038986 43.352783,73.271751 
	C43.152992,73.477348 43.037262,73.722626 43.000000,74.000000 
	C43.000000,74.000000 43.006851,74.005608 42.299690,74.073334 
	C40.198673,77.224747 37.818848,80.233696 36.107056,83.583977 
	C35.164486,85.428757 35.345013,87.847374 35.033253,90.721298 
	C34.877098,91.167358 34.720940,91.613419 34.269943,92.326042 
	C34.105499,92.549522 34.031036,92.799789 33.998478,93.017853 
	C33.998478,93.017853 34.071148,93.040421 33.377598,93.112885 
	C33.239819,94.404892 33.102039,95.696907 33.035530,97.681381 
	C32.935024,98.131203 32.834522,98.581017 32.164047,99.390236 
	C27.047407,102.420448 29.734406,106.289391 31.188692,110.748322 
	C31.120955,111.498703 31.053217,112.249077 30.234304,113.150703 
	C28.365355,117.072395 29.645950,123.844734 32.924305,126.726768 
	C32.974464,127.474838 33.024624,128.222900 32.505722,129.411087 
	C33.472042,133.088135 34.206635,136.849731 35.504440,140.405807 
	C36.134033,142.130936 37.818729,143.470978 38.995308,144.994171 
	C38.995308,144.994171 39.016361,144.968781 39.094131,145.356613 
	C39.192902,145.613617 39.362225,145.809677 39.935066,146.388351 
	C39.963665,146.571014 39.992260,146.753662 40.120125,147.357544 
	C40.242226,147.634109 40.440041,147.836777 41.017624,148.325424 
	C41.017624,148.325424 41.072906,148.793304 41.171543,149.301407 
	C41.409550,149.541946 41.647560,149.782486 42.351860,150.341110 
	C42.589016,150.836594 42.826176,151.332062 43.168293,152.323013 
	C43.402100,152.558060 43.635906,152.793121 44.364956,153.362442 
	C44.632454,153.885101 44.899948,154.407761 44.599728,155.312485 
	C43.966293,158.957504 46.738033,159.247375 49.048862,159.957153 
	C49.048862,159.957153 49.067585,159.865143 49.241383,160.384369 
	C49.542053,160.573517 49.842724,160.762650 50.683826,161.107361 
	C51.142509,161.680573 51.601189,162.253784 52.261433,163.360657 
	C52.581295,163.547165 52.901154,163.733658 53.652058,164.019699 
	C53.939762,164.171890 54.094017,164.410400 54.032963,165.362442 
	C54.019978,165.572891 54.006996,165.783340 53.716770,166.104111 
	C53.813194,166.071320 53.909618,166.038528 54.627773,165.927811 
	C54.829399,165.873123 55.031029,165.818436 55.128586,165.847870 
	C55.128586,165.847870 55.159328,165.717636 55.302643,166.311249 
	C55.831799,166.558228 56.360958,166.805222 56.961834,167.017242 
	C56.961834,167.017242 56.954903,167.096725 56.987076,167.849503 
	C58.138927,169.880814 58.828365,172.996628 60.535900,173.724701 
	C64.467644,175.401138 68.894302,175.916885 73.016197,176.954865 
	C73.016197,176.954865 73.084831,176.861496 73.125450,177.578812 
	C75.083153,178.053955 77.040863,178.529099 79.686256,178.974091 
	C80.117912,179.117294 80.549576,179.260513 81.153717,180.040283 
	C83.096291,180.379959 85.038864,180.719635 87.757408,180.970276 
	C88.521996,181.102646 89.286583,181.235001 90.475433,181.927948 
	C96.188065,182.496780 101.892303,183.284637 107.618332,183.503952 
	C109.386681,183.571701 111.214348,182.090576 113.732864,181.066956 
	C114.489479,181.048615 115.246086,181.030273 116.429390,181.534714 
	C118.291847,180.808670 120.154305,180.082626 122.636375,179.070953 
	C123.087883,179.036240 123.539398,179.001541 124.070152,179.583038 
	C125.651970,178.976974 127.233795,178.370926 128.815613,177.764862 
	C127.534241,177.184937 126.252869,176.604996 125.000000,176.000000 
	C125.000000,176.000000 124.974510,176.028122 124.991974,175.279694 
	C123.668694,171.708466 125.114563,170.518738 128.698868,169.871964 
	C134.287125,168.863571 140.555969,169.442810 144.967224,164.500366 
	C138.019531,159.211090 136.979187,159.434006 133.542007,167.620682 
	C130.641602,161.864807 127.829399,164.378036 124.628372,166.986099 
	C123.697731,167.744370 121.579002,167.044449 119.481728,166.883545 
	C119.309570,166.832214 119.137421,166.780884 118.631241,166.197433 
	C117.537285,163.983582 116.443336,161.769745 115.486305,159.465530 
	C115.486305,159.465530 115.626495,159.380341 116.393791,159.770813 
	C117.952301,160.150177 119.510818,160.529541 121.693321,161.060791 
	C122.502960,157.945267 123.265617,155.010529 124.143631,151.560837 
	C124.426140,151.372589 124.708649,151.184341 125.745323,150.999420 
	C130.180618,149.478577 134.624207,147.981110 139.043304,146.414581 
	C139.805649,146.144333 140.440567,145.534225 141.176041,145.163910 
	C142.338303,144.578705 143.535812,144.063522 144.718414,143.518707 
	C145.088837,145.035004 146.169083,146.841385 145.691116,148.010971 
	C144.460861,151.021500 142.540466,153.749985 140.535461,157.213730 
	C142.426285,157.991058 144.362823,158.787170 146.299362,159.583282 
	C146.717651,157.435822 147.791885,155.158249 147.397919,153.171890 
	C146.830643,150.311829 148.058350,149.990387 150.711105,150.128601 
	C151.140884,150.752975 151.570663,151.377365 151.988876,152.815460 
	C152.089951,155.146393 151.508835,157.918701 155.529861,157.821762 
	C155.529861,157.821762 155.781433,157.917694 156.328766,157.762268 
	C156.533264,157.455353 156.737778,157.148438 157.106934,156.290253 
	C157.251495,156.164246 157.396057,156.038239 157.760574,155.756500 
	C157.891464,155.628220 157.991791,155.479340 158.032867,155.100357 
	C158.032867,155.100357 158.239639,155.056107 158.591003,154.821716 
M125.792702,159.437958 
	C124.307564,161.019302 122.822418,162.600662 121.337273,164.182022 
	C124.399849,163.948700 127.692383,163.986938 125.792702,159.437958 
M74.229706,183.171951 
	C75.761917,183.848328 77.294136,184.524704 78.826347,185.201065 
	C79.029083,184.562576 79.231819,183.924088 79.434547,183.285599 
	C77.947250,183.203171 76.459953,183.120758 74.229706,183.171951 
M127.220291,155.164703 
	C127.942650,155.579239 128.665009,155.993790 129.387375,156.408325 
	C129.457626,155.526154 129.527893,154.643967 129.598160,153.761795 
	C128.781601,153.993088 127.965034,154.224396 127.220291,155.164703 
M135.676422,156.016876 
	C136.209808,156.596024 136.743195,157.175156 137.276581,157.754303 
	C137.709946,157.151398 138.143311,156.548508 138.576691,155.945602 
	C137.770874,155.812927 136.965042,155.680252 135.676422,156.016876 
M165.605667,69.155273 
	C165.346039,69.797379 165.086411,70.439484 164.826797,71.081581 
	C165.373245,71.174782 165.919678,71.267982 166.466125,71.361183 
	C166.384918,70.681435 166.303696,70.001694 165.605667,69.155273 
M37.269291,155.096909 
	C37.768024,155.041946 38.266758,154.986984 38.765491,154.932037 
	C38.650856,154.485260 38.536217,154.038467 38.421581,153.591690 
	C37.995804,153.894119 37.570026,154.196533 37.269291,155.096909 
z"/>
<path fill="#E95F22" opacity="1.000000" stroke="none" 
	d="
M170.994781,107.001991 
	C170.936935,111.357292 170.879074,115.712593 170.679550,120.852554 
	C169.477600,132.922867 165.594528,143.248703 159.889328,152.955002 
	C159.632919,153.169571 159.376495,153.384140 158.859467,153.930420 
	C158.318481,154.454117 158.198746,154.718781 158.239639,155.056107 
	C158.239639,155.056107 158.032867,155.100357 157.891937,155.230667 
	C157.549347,155.494537 157.479218,155.678284 157.540619,155.912216 
	C157.396057,156.038239 157.251495,156.164246 156.768677,156.672546 
	C156.214096,157.342453 155.997757,157.630066 155.781433,157.917694 
	C155.781433,157.917694 155.529861,157.821762 155.338257,157.505707 
	C154.097900,155.460358 153.049179,153.731049 152.000443,152.001740 
	C151.570663,151.377365 151.140884,150.752975 150.258301,149.691422 
	C149.241791,147.689102 148.431671,146.164856 148.163895,144.550613 
	C147.540527,140.792770 143.401230,138.494827 141.602036,141.268890 
	C139.121719,145.093094 135.395355,144.728394 132.144974,146.153534 
	C129.551254,147.290787 127.360680,149.347519 124.991150,150.996094 
	C124.708649,151.184341 124.426140,151.372589 123.776085,151.979660 
	C121.778732,155.800491 119.726692,158.731857 115.626495,159.380341 
	C115.626495,159.380341 115.486305,159.465530 115.152481,159.661957 
	C112.700859,164.827713 113.701019,166.485031 118.965271,166.729568 
	C119.137421,166.780884 119.309570,166.832214 119.784439,167.311752 
	C121.716263,170.502686 123.345383,173.265396 124.974510,176.028122 
	C124.974510,176.028122 125.000000,176.000000 125.040833,176.285797 
	C124.718079,177.370010 124.354492,178.168411 123.990906,178.966827 
	C123.539398,179.001541 123.087883,179.036240 121.971207,179.196350 
	C119.538261,179.885132 117.770477,180.448517 116.002701,181.011917 
	C115.246086,181.030273 114.489479,181.048615 112.948189,181.132843 
	C104.792732,181.254944 97.421951,181.311157 90.051170,181.367371 
	C89.286583,181.235001 88.521996,181.102646 87.091339,180.807007 
	C84.610588,180.230408 82.795914,179.817062 80.981232,179.403717 
	C80.549576,179.260513 80.117912,179.117294 79.097992,178.739746 
	C76.701431,177.957428 74.893127,177.409454 73.084831,176.861496 
	C73.084831,176.861496 73.016197,176.954865 72.869476,176.644196 
	C67.466797,173.254608 62.210850,170.175674 56.954903,167.096741 
	C56.954903,167.096725 56.961834,167.017242 56.799919,166.774780 
	C56.145115,166.260773 55.652222,165.989197 55.159328,165.717636 
	C55.159328,165.717636 55.128586,165.847870 55.085556,165.553024 
	C54.733295,165.083862 54.424061,164.909546 54.114826,164.735229 
	C54.094017,164.410400 53.939762,164.171890 53.336235,163.702759 
	C52.700233,163.199524 52.380054,163.013260 52.059872,162.826996 
	C51.601189,162.253784 51.142509,161.680573 50.323235,160.772339 
	C49.664288,160.246582 49.365936,160.055862 49.067589,159.865143 
	C49.067585,159.865143 49.048862,159.957153 49.027973,159.613312 
	C47.727207,157.823105 46.447330,156.376770 45.167450,154.930420 
	C44.899948,154.407761 44.632454,153.885101 44.095509,152.934540 
	C43.571819,152.280258 43.317577,152.053909 43.063332,151.827545 
	C42.826176,151.332062 42.589016,150.836594 42.100765,149.913666 
	C41.590752,149.255264 41.331829,149.024277 41.072906,148.793304 
	C41.072906,148.793304 41.017624,148.325424 40.870689,147.910202 
	C40.607643,147.160110 40.373341,146.973877 40.020855,146.936310 
	C39.992260,146.753662 39.963665,146.571014 39.798653,145.950699 
	C39.542160,145.218674 39.326866,145.037262 39.016361,144.968781 
	C39.016361,144.968781 38.995308,144.994171 38.985291,144.620239 
	C37.008446,139.154541 35.041615,134.062759 33.074783,128.970978 
	C33.024624,128.222900 32.974464,127.474838 32.847786,125.964470 
	C32.176006,121.134598 31.580744,117.067032 30.985481,112.999458 
	C31.053217,112.249077 31.120955,111.498703 31.303463,110.044144 
	C31.856829,105.903587 32.295425,102.467216 32.734020,99.030838 
	C32.834522,98.581017 32.935024,98.131203 33.227165,97.069000 
	C33.636250,95.317894 33.853699,94.179153 34.071148,93.040421 
	C34.071148,93.040421 33.998478,93.017853 34.214287,92.944885 
	C34.656792,92.631233 34.701687,92.360420 34.564781,92.059479 
	C34.720940,91.613419 34.877098,91.167358 35.272659,90.118210 
	C38.010326,84.345284 40.508591,79.175446 43.006855,74.005608 
	C43.006851,74.005608 43.000000,74.000000 43.205139,73.915001 
	C43.674835,73.627213 43.769123,73.363541 43.693146,73.038986 
	C43.693146,73.038986 44.029453,72.737740 44.365883,72.340775 
	C46.165588,69.982620 47.628868,68.021439 49.092148,66.060249 
	C49.092144,66.060249 49.018909,66.015167 49.288097,65.975174 
	C49.734333,65.637573 49.911385,65.339958 50.088432,65.042343 
	C50.088432,65.042343 50.010944,65.010536 50.337460,64.957397 
	C51.501522,63.984859 52.339066,63.065460 53.176609,62.146057 
	C53.176609,62.146057 53.031391,62.067829 53.403732,62.040260 
	C55.252720,60.705112 56.729370,59.397530 58.206017,58.089951 
	C71.785088,48.900730 86.707741,43.707523 103.942604,42.949066 
	C107.744347,42.954552 110.736725,42.994999 113.906380,43.377495 
	C118.393921,45.062019 122.704193,46.404499 127.014465,47.746979 
	C127.166122,47.836029 127.317772,47.925079 127.940598,48.277050 
	C130.940247,49.694870 133.468689,50.849766 135.997147,52.004662 
	C136.415619,52.343006 136.834106,52.681347 137.709198,53.340523 
	C144.080200,58.813194 149.994598,63.965027 155.908997,69.116859 
	C155.908997,69.116859 155.967804,69.012451 155.991745,69.349442 
	C156.683411,70.440636 157.351120,71.194839 158.018845,71.949051 
	C158.143112,72.250626 158.267380,72.552200 158.687469,73.304131 
	C162.324905,80.835327 165.666534,87.916168 169.008179,94.997002 
	C169.019592,95.449219 169.031006,95.901443 169.145477,97.068604 
	C169.830612,100.856361 170.412704,103.929176 170.994781,107.001991 
z"/>
<path fill="#0C974C" opacity="1.000000" stroke="none" 
	d="
M113.729111,43.035446 
	C110.736725,42.994999 107.744347,42.954552 104.383339,42.875397 
	C105.103226,38.306942 104.925804,32.722683 107.599281,29.513201 
	C110.974060,25.461823 116.673592,23.346962 122.129501,20.256643 
	C130.400528,19.143957 136.515091,21.955664 141.772568,27.088736 
	C141.772568,27.088736 141.795776,27.477037 141.602097,27.869713 
	C139.217072,30.818203 137.025726,33.374020 134.834396,35.929832 
	C134.517670,35.896385 134.243698,35.989178 133.583710,36.514565 
	C131.563843,37.813324 129.972748,38.805733 128.381638,39.798138 
	C128.381638,39.798134 128.142654,39.745728 127.681900,39.854942 
	C122.723808,40.987919 118.226456,42.011681 113.729111,43.035446 
z"/>
<path fill="#FDF9F3" opacity="1.000000" stroke="none" 
	d="
M124.983246,175.653900 
	C123.345383,173.265396 121.716263,170.502686 120.046013,167.376465 
	C121.579002,167.044449 123.697731,167.744370 124.628372,166.986099 
	C127.829399,164.378036 130.641602,161.864807 133.542007,167.620682 
	C136.979187,159.434006 138.019531,159.211090 144.967224,164.500366 
	C140.555969,169.442810 134.287125,168.863571 128.698868,169.871964 
	C125.114563,170.518738 123.668694,171.708466 124.983246,175.653900 
z"/>
<path fill="#FDF9F3" opacity="1.000000" stroke="none" 
	d="
M125.368240,150.997757 
	C127.360680,149.347519 129.551254,147.290787 132.144974,146.153534 
	C135.395355,144.728394 139.121719,145.093094 141.602036,141.268890 
	C143.401230,138.494827 147.540527,140.792770 148.163895,144.550613 
	C148.431671,146.164856 149.241791,147.689102 149.986847,149.589783 
	C148.058350,149.990387 146.830643,150.311829 147.397919,153.171890 
	C147.791885,155.158249 146.717651,157.435822 146.299362,159.583282 
	C144.362823,158.787170 142.426285,157.991058 140.535461,157.213730 
	C142.540466,153.749985 144.460861,151.021500 145.691116,148.010971 
	C146.169083,146.841385 145.088837,145.035004 144.718414,143.518707 
	C143.535812,144.063522 142.338303,144.578705 141.176041,145.163910 
	C140.440567,145.534225 139.805649,146.144333 139.043304,146.414581 
	C134.624207,147.981110 130.180618,149.478577 125.368240,150.997757 
z"/>
<path fill="#FDF9F3" opacity="1.000000" stroke="none" 
	d="
M160.250244,152.938446 
	C165.594528,143.248703 169.477600,132.922867 170.750702,121.312149 
	C172.361877,124.944878 173.129272,128.455048 170.511063,132.711533 
	C167.828033,137.073380 166.997574,142.536179 164.934814,147.336014 
	C164.034698,149.430511 162.084473,151.073715 160.250244,152.938446 
z"/>
<path fill="#FDF9F3" opacity="1.000000" stroke="none" 
	d="
M155.937134,68.740097 
	C149.994598,63.965027 144.080200,58.813194 137.984329,53.372223 
	C139.516632,53.578175 141.230621,54.072544 142.944138,54.568539 
	C145.250076,55.236019 147.555664,55.904755 150.389313,56.725948 
	C150.241119,57.174648 149.750977,58.658741 149.622391,59.048084 
	C152.043182,62.603291 154.004227,65.483307 155.937134,68.740097 
z"/>
<path fill="#FDF9F3" opacity="1.000000" stroke="none" 
	d="
M113.906380,43.377495 
	C118.226456,42.011681 122.723808,40.987919 127.605072,39.950130 
	C127.628075,42.302715 127.267166,44.669323 126.960358,47.391457 
	C122.704193,46.404499 118.393921,45.062019 113.906380,43.377495 
z"/>
<path fill="#FDF9F3" opacity="1.000000" stroke="none" 
	d="
M169.282410,94.761261 
	C165.666534,87.916168 162.324905,80.835327 158.918121,73.406250 
	C160.272598,74.234329 162.365417,75.130211 162.992935,76.636528 
	C165.433273,82.494362 167.408386,88.546005 169.282410,94.761261 
z"/>
<path fill="#FDF9F3" opacity="1.000000" stroke="none" 
	d="
M90.263306,181.647659 
	C97.421951,181.311157 104.792732,181.254944 112.589188,181.258698 
	C111.214348,182.090576 109.386681,183.571701 107.618332,183.503952 
	C101.892303,183.284637 96.188065,182.496780 90.263306,181.647659 
z"/>
<path fill="#FDF9F3" opacity="1.000000" stroke="none" 
	d="
M56.970985,167.473114 
	C62.210850,170.175674 67.466797,173.254608 72.921440,176.618561 
	C68.894302,175.916885 64.467644,175.401138 60.535900,173.724701 
	C58.828365,172.996628 58.138927,169.880814 56.970985,167.473114 
z"/>
<path fill="#FDF9F3" opacity="1.000000" stroke="none" 
	d="
M142.049530,26.912483 
	C136.515091,21.955664 130.400528,19.143957 122.444458,20.065035 
	C128.682449,17.837942 138.050400,18.560566 142.516678,25.401266 
	C142.701431,25.684238 142.400925,26.284035 142.049530,26.912483 
z"/>
<path fill="#FDF9F3" opacity="1.000000" stroke="none" 
	d="
M42.653275,74.039474 
	C40.508591,79.175446 38.010326,84.345284 35.265633,89.761200 
	C35.345013,87.847374 35.164486,85.428757 36.107056,83.583977 
	C37.818848,80.233696 40.198673,77.224747 42.653275,74.039474 
z"/>
<path fill="#FDF9F3" opacity="1.000000" stroke="none" 
	d="
M32.790253,129.191040 
	C35.041615,134.062759 37.008446,139.154541 39.000515,144.615845 
	C37.818729,143.470978 36.134033,142.130936 35.504440,140.405807 
	C34.206635,136.849731 33.472042,133.088135 32.790253,129.191040 
z"/>
<path fill="#FDF9F3" opacity="1.000000" stroke="none" 
	d="
M30.609894,113.075081 
	C31.580744,117.067032 32.176006,121.134598 32.719387,125.610352 
	C29.645950,123.844734 28.365355,117.072395 30.609894,113.075081 
z"/>
<path fill="#FDF9F3" opacity="1.000000" stroke="none" 
	d="
M32.449036,99.210541 
	C32.295425,102.467216 31.856829,105.903587 31.220543,109.673996 
	C29.734406,106.289391 27.047407,102.420448 32.449036,99.210541 
z"/>
<path fill="#FDF9F3" opacity="1.000000" stroke="none" 
	d="
M116.010147,159.575577 
	C119.726692,158.731857 121.778732,155.800491 123.718414,152.237122 
	C123.265617,155.010529 122.502960,157.945267 121.693321,161.060791 
	C119.510818,160.529541 117.952301,160.150177 116.010147,159.575577 
z"/>
<path fill="#FDF9F3" opacity="1.000000" stroke="none" 
	d="
M118.798256,166.463501 
	C113.701019,166.485031 112.700859,164.827713 115.084030,159.707138 
	C116.443336,161.769745 117.537285,163.983582 118.798256,166.463501 
z"/>
<path fill="#FDF9F3" opacity="1.000000" stroke="none" 
	d="
M171.281418,106.738052 
	C170.412704,103.929176 169.830612,100.856361 169.276001,97.384087 
	C172.555634,99.551834 172.255096,102.966850 171.281418,106.738052 
z"/>
<path fill="#FDF9F3" opacity="1.000000" stroke="none" 
	d="
M135.215179,35.948746 
	C137.025726,33.374020 139.217072,30.818203 141.672012,28.051208 
	C142.326859,32.502735 139.884384,34.955120 135.215179,35.948746 
z"/>
<path fill="#FDF9F3" opacity="1.000000" stroke="none" 
	d="
M126.126060,159.499939 
	C127.692383,163.986938 124.399849,163.948700 121.337273,164.182022 
	C122.822418,162.600662 124.307564,161.019302 126.126060,159.499939 
z"/>
<path fill="#FDF9F3" opacity="1.000000" stroke="none" 
	d="
M124.030533,179.274933 
	C124.354492,178.168411 124.718079,177.370010 125.026581,176.298325 
	C126.252869,176.604996 127.534241,177.184937 128.815613,177.764862 
	C127.233795,178.370926 125.651970,178.976974 124.030533,179.274933 
z"/>
<path fill="#FDF9F3" opacity="1.000000" stroke="none" 
	d="
M48.719711,66.073494 
	C47.628868,68.021439 46.165588,69.982620 44.411644,72.119705 
	C43.308800,68.714226 45.531906,67.198914 48.719711,66.073494 
z"/>
<path fill="#FDF9F3" opacity="1.000000" stroke="none" 
	d="
M57.843018,58.034019 
	C56.729370,59.397530 55.252720,60.705112 53.460411,62.100174 
	C53.144775,59.296253 53.085392,56.343666 57.843018,58.034019 
z"/>
<path fill="#FDF9F3" opacity="1.000000" stroke="none" 
	d="
M135.946899,51.650703 
	C133.468689,50.849766 130.940247,49.694870 128.204330,48.270813 
	C130.630127,49.100018 133.263397,50.198383 135.946899,51.650703 
z"/>
<path fill="#FDF9F3" opacity="1.000000" stroke="none" 
	d="
M74.601181,183.105133 
	C76.459953,183.120758 77.947250,183.203171 79.434547,183.285599 
	C79.231819,183.924088 79.029083,184.562576 78.826347,185.201065 
	C77.294136,184.524704 75.761917,183.848328 74.601181,183.105133 
z"/>
<path fill="#FDF9F3" opacity="1.000000" stroke="none" 
	d="
M44.883591,155.121460 
	C46.447330,156.376770 47.727207,157.823105 49.068825,159.590164 
	C46.738033,159.247375 43.966293,158.957504 44.883591,155.121460 
z"/>
<path fill="#FDF9F3" opacity="1.000000" stroke="none" 
	d="
M151.994659,152.408600 
	C153.049179,153.731049 154.097900,155.460358 155.207153,157.536331 
	C151.508835,157.918701 152.089951,155.146393 151.994659,152.408600 
z"/>
<path fill="#FDF9F3" opacity="1.000000" stroke="none" 
	d="
M128.833527,39.852318 
	C129.972748,38.805733 131.563843,37.813324 133.487030,36.715134 
	C135.924484,42.681366 130.908615,38.961391 128.833527,39.852318 
z"/>
<path fill="#FDF9F3" opacity="1.000000" stroke="none" 
	d="
M81.067474,179.722000 
	C82.795914,179.817062 84.610588,180.230408 86.703354,180.851532 
	C85.038864,180.719635 83.096291,180.379959 81.067474,179.722000 
z"/>
<path fill="#FDF9F3" opacity="1.000000" stroke="none" 
	d="
M73.105141,177.220154 
	C74.893127,177.409454 76.701431,177.957428 78.754150,178.754822 
	C77.040863,178.529099 75.083153,178.053955 73.105141,177.220154 
z"/>
<path fill="#FDF9F3" opacity="1.000000" stroke="none" 
	d="
M127.184387,154.810196 
	C127.965034,154.224396 128.781601,153.993088 129.598160,153.761795 
	C129.527893,154.643967 129.457626,155.526154 129.387375,156.408325 
	C128.665009,155.993790 127.942650,155.579239 127.184387,154.810196 
z"/>
<path fill="#FDF9F3" opacity="1.000000" stroke="none" 
	d="
M116.216049,181.273315 
	C117.770477,180.448517 119.538261,179.885132 121.661407,179.339157 
	C120.154305,180.082626 118.291847,180.808670 116.216049,181.273315 
z"/>
<path fill="#FDF9F3" opacity="1.000000" stroke="none" 
	d="
M135.917816,155.782227 
	C136.965042,155.680252 137.770874,155.812927 138.576691,155.945602 
	C138.143311,156.548508 137.709946,157.151398 137.276581,157.754303 
	C136.743195,157.175156 136.209808,156.596024 135.917816,155.782227 
z"/>
<path fill="#FDF9F3" opacity="1.000000" stroke="none" 
	d="
M33.724373,93.076653 
	C33.853699,94.179153 33.636250,95.317894 33.191532,96.722771 
	C33.102039,95.696907 33.239819,94.404892 33.724373,93.076653 
z"/>
<path fill="#FDF9F3" opacity="1.000000" stroke="none" 
	d="
M165.914062,69.238609 
	C166.303696,70.001694 166.384918,70.681435 166.466125,71.361176 
	C165.919678,71.267982 165.373245,71.174782 164.826782,71.081581 
	C165.086411,70.439484 165.346039,69.797379 165.914062,69.238609 
z"/>
<path fill="#FDF9F3" opacity="1.000000" stroke="none" 
	d="
M52.788216,62.104046 
	C52.339066,63.065460 51.501522,63.984859 50.360546,64.992340 
	C50.838020,64.074295 51.618923,63.068165 52.788216,62.104046 
z"/>
<path fill="#FDF9F3" opacity="1.000000" stroke="none" 
	d="
M37.206768,154.797943 
	C37.570026,154.196533 37.995804,153.894119 38.421577,153.591690 
	C38.536217,154.038467 38.650856,154.485260 38.765495,154.932037 
	C38.266758,154.986984 37.768024,155.041946 37.206768,154.797943 
z"/>
<path fill="#FDF9F3" opacity="1.000000" stroke="none" 
	d="
M158.014282,71.591385 
	C157.351120,71.194839 156.683411,70.440636 155.944489,69.386276 
	C156.585434,69.801979 157.297577,70.517845 158.014282,71.591385 
z"/>
<path fill="#FDF9F3" opacity="1.000000" stroke="none" 
	d="
M55.230988,166.014435 
	C55.652222,165.989197 56.145115,166.260773 56.764061,166.792267 
	C56.360958,166.805222 55.831799,166.558228 55.230988,166.014435 
z"/>
<path fill="#FDF9F3" opacity="1.000000" stroke="none" 
	d="
M34.417362,92.192764 
	C34.701687,92.360420 34.656792,92.631233 34.238327,92.974380 
	C34.031036,92.799789 34.105499,92.549522 34.417362,92.192764 
z"/>
<path fill="#FDF9F3" opacity="1.000000" stroke="none" 
	d="
M49.841385,65.133987 
	C49.911385,65.339958 49.734333,65.637573 49.302040,66.015854 
	C49.229305,65.806221 49.411819,65.515930 49.841385,65.133987 
z"/>
<path fill="#FDF9F3" opacity="1.000000" stroke="none" 
	d="
M54.006042,166.005722 
	C53.909618,166.038528 53.813194,166.071320 53.858383,166.052063 
	C54.000000,166.000000 54.006042,166.005722 54.006042,166.005722 
z"/>
<path fill="#FDF9F3" opacity="1.000000" stroke="none" 
	d="
M54.073895,165.048828 
	C54.424061,164.909546 54.733295,165.083862 55.137592,165.510956 
	C55.031029,165.818436 54.829399,165.873123 54.316910,165.966766 
	C54.006042,166.005722 54.000000,166.000000 53.997009,165.996887 
	C54.006996,165.783340 54.019978,165.572891 54.073895,165.048828 
z"/>
<path fill="#FDF9F3" opacity="1.000000" stroke="none" 
	d="
M52.160652,163.093826 
	C52.380054,163.013260 52.700233,163.199524 53.120712,163.652985 
	C52.901154,163.733658 52.581295,163.547165 52.160652,163.093826 
z"/>
<path fill="#FDF9F3" opacity="1.000000" stroke="none" 
	d="
M43.522964,73.155365 
	C43.769123,73.363541 43.674835,73.627213 43.207939,73.918793 
	C43.037262,73.722626 43.152992,73.477348 43.522964,73.155365 
z"/>
<path fill="#FDF9F3" opacity="1.000000" stroke="none" 
	d="
M41.122223,149.047363 
	C41.331829,149.024277 41.590752,149.255264 41.867622,149.754639 
	C41.647560,149.782486 41.409550,149.541946 41.122223,149.047363 
z"/>
<path fill="#FDF9F3" opacity="1.000000" stroke="none" 
	d="
M49.154488,160.124756 
	C49.365936,160.055862 49.664288,160.246582 50.053017,160.694550 
	C49.842724,160.762650 49.542053,160.573517 49.154488,160.124756 
z"/>
<path fill="#FDF9F3" opacity="1.000000" stroke="none" 
	d="
M156.055099,157.839981 
	C155.997757,157.630066 156.214096,157.342453 156.686356,156.948181 
	C156.737778,157.148438 156.533264,157.455353 156.055099,157.839981 
z"/>
<path fill="#FDF9F3" opacity="1.000000" stroke="none" 
	d="
M157.650604,155.834351 
	C157.479218,155.678284 157.549347,155.494537 157.906296,155.335419 
	C157.991791,155.479340 157.891464,155.628220 157.650604,155.834351 
z"/>
<path fill="#FDF9F3" opacity="1.000000" stroke="none" 
	d="
M39.055244,145.162689 
	C39.326866,145.037262 39.542160,145.218674 39.632164,145.728928 
	C39.362225,145.809677 39.192902,145.613617 39.055244,145.162689 
z"/>
<path fill="#FDF9F3" opacity="1.000000" stroke="none" 
	d="
M158.415314,154.938904 
	C158.198746,154.718781 158.318481,154.454117 158.813553,154.186188 
	C158.953506,154.391037 158.807755,154.628189 158.415314,154.938904 
z"/>
<path fill="#FDF9F3" opacity="1.000000" stroke="none" 
	d="
M40.070488,147.146927 
	C40.373341,146.973877 40.607643,147.160110 40.718658,147.730255 
	C40.440041,147.836777 40.242226,147.634109 40.070488,147.146927 
z"/>
<path fill="#FDF9F3" opacity="1.000000" stroke="none" 
	d="
M43.115814,152.075287 
	C43.317577,152.053909 43.571819,152.280258 43.847885,152.767395 
	C43.635906,152.793121 43.402100,152.558060 43.115814,152.075287 
z"/>
</svg>